<svg width="21" height="15" viewBox="0 0 21 15" fill="none" xmlns="http://www.w3.org/2000/svg">
<path fill-rule="evenodd" clip-rule="evenodd" d="M3.79163 1.75C3.79163 1.93878 3.75444 2.1257 3.6822 2.30011C3.60996 2.47451 3.50408 2.63298 3.37059 2.76647C3.23711 2.89995 3.07864 3.00584 2.90423 3.07808C2.72983 3.15032 2.5429 3.1875 2.35413 3.1875C2.16535 3.1875 1.97842 3.15032 1.80402 3.07808C1.62961 3.00584 1.47114 2.89995 1.33766 2.76647C1.20418 2.63298 1.09829 2.47451 1.02605 2.30011C0.953808 2.1257 0.916626 1.93878 0.916626 1.75C0.916626 1.36875 1.06808 1.00312 1.33766 0.733534C1.60724 0.46395 1.97288 0.3125 2.35413 0.3125C2.73537 0.3125 3.10101 0.46395 3.37059 0.733534C3.64018 1.00312 3.79163 1.36875 3.79163 1.75ZM7.62496 0.791667C7.37079 0.791667 7.12704 0.892634 6.94732 1.07236C6.76759 1.25208 6.66663 1.49583 6.66663 1.75C6.66663 2.00417 6.76759 2.24792 6.94732 2.42764C7.12704 2.60737 7.37079 2.70833 7.62496 2.70833H19.125C19.3791 2.70833 19.6229 2.60737 19.8026 2.42764C19.9823 2.24792 20.0833 2.00417 20.0833 1.75C20.0833 1.49583 19.9823 1.25208 19.8026 1.07236C19.6229 0.892634 19.3791 0.791667 19.125 0.791667H7.62496ZM7.62496 6.54167C7.37079 6.54167 7.12704 6.64263 6.94732 6.82236C6.76759 7.00208 6.66663 7.24583 6.66663 7.5C6.66663 7.75417 6.76759 7.99792 6.94732 8.17764C7.12704 8.35737 7.37079 8.45833 7.62496 8.45833H19.125C19.3791 8.45833 19.6229 8.35737 19.8026 8.17764C19.9823 7.99792 20.0833 7.75417 20.0833 7.5C20.0833 7.24583 19.9823 7.00208 19.8026 6.82236C19.6229 6.64263 19.3791 6.54167 19.125 6.54167H7.62496ZM6.66663 13.25C6.66663 12.9958 6.76759 12.7521 6.94732 12.5724C7.12704 12.3926 7.37079 12.2917 7.62496 12.2917H13.375C13.6291 12.2917 13.8729 12.3926 14.0526 12.5724C14.2323 12.7521 14.3333 12.9958 14.3333 13.25C14.3333 13.5042 14.2323 13.7479 14.0526 13.9276C13.8729 14.1074 13.6291 14.2083 13.375 14.2083H7.62496C7.37079 14.2083 7.12704 14.1074 6.94732 13.9276C6.76759 13.7479 6.66663 13.5042 6.66663 13.25ZM2.35413 8.9375C2.73537 8.9375 3.10101 8.78605 3.37059 8.51647C3.64018 8.24688 3.79163 7.88125 3.79163 7.5C3.79163 7.11875 3.64018 6.75312 3.37059 6.48353C3.10101 6.21395 2.73537 6.0625 2.35413 6.0625C1.97288 6.0625 1.60724 6.21395 1.33766 6.48353C1.06808 6.75312 0.916626 7.11875 0.916626 7.5C0.916626 7.88125 1.06808 8.24688 1.33766 8.51647C1.60724 8.78605 1.97288 8.9375 2.35413 8.9375ZM3.79163 13.25C3.79163 13.4388 3.75444 13.6257 3.6822 13.8001C3.60996 13.9745 3.50408 14.133 3.37059 14.2665C3.23711 14.3999 3.07864 14.5058 2.90423 14.5781C2.72983 14.6503 2.5429 14.6875 2.35413 14.6875C2.16535 14.6875 1.97842 14.6503 1.80402 14.5781C1.62961 14.5058 1.47114 14.3999 1.33766 14.2665C1.20418 14.133 1.09829 13.9745 1.02605 13.8001C0.953808 13.6257 0.916626 13.4388 0.916626 13.25C0.916626 12.8688 1.06808 12.5031 1.33766 12.2335C1.60724 11.964 1.97288 11.8125 2.35413 11.8125C2.73537 11.8125 3.10101 11.964 3.37059 12.2335C3.64018 12.5031 3.79163 12.8688 3.79163 13.25Z" fill="white"/>
</svg>
