<svg width="21" height="18" viewBox="0 0 21 18" fill="none" xmlns="http://www.w3.org/2000/svg">
<path d="M2.49766 9.3875C2.06282 8.95906 1.7175 8.44844 1.4818 7.88533C1.2461 7.32222 1.12473 6.71787 1.12473 6.10742C1.12473 5.49697 1.2461 4.89262 1.4818 4.32951C1.7175 3.7664 2.06282 3.25578 2.49766 2.82734C3.38125 1.95661 4.57197 1.46851 5.8125 1.46851C7.05303 1.46851 8.24375 1.95661 9.12735 2.82734C9.56221 3.2555 9.90753 3.76592 10.1432 4.32885C10.3789 4.89178 10.5001 5.49598 10.5 6.10625C10.5 4.91875 10.9578 3.73281 11.8727 2.82734C12.7563 1.95661 13.947 1.46851 15.1875 1.46851C16.428 1.46851 17.6188 1.95661 18.5023 2.82734C18.9372 3.25578 19.2825 3.7664 19.5182 4.32951C19.7539 4.89262 19.8753 5.49697 19.8753 6.10742C19.8753 6.71787 19.7539 7.32222 19.5182 7.88533C19.2825 8.44844 18.9372 8.95906 18.5023 9.3875C17.893 9.98984 15.2258 12.2984 10.5 16.3125C5.77657 12.3008 3.10938 9.99219 2.49766 9.3875V9.3875Z" stroke="#F15E22" stroke-width="2.25" stroke-linecap="round" stroke-linejoin="round"/>
</svg>
