<svg width="204" height="20" viewBox="0 0 204 20" fill="none" xmlns="http://www.w3.org/2000/svg">
<path d="M0.699951 0.543197H4.91595V7.47922H10.3899L15.1159 0.543197H20.012L13.9939 9.24722L20.454 19.3452H15.4219L10.492 11.3552H4.91595V19.3452H0.699951V0.543197ZM22.946 0.543197H27.196V19.3452H22.946V0.543197ZM30.5828 0.543197H34.5948L45.8488 13.1912V0.543197H50.065V19.3452H46.0187L34.7648 6.66322V19.3452H30.5828V0.543197ZM64.5439 8.43122H73.418V19.3452H70.7659L70.188 17.8832C68.329 19.1752 66.142 19.8212 63.6259 19.8212C60.588 19.8212 58.072 18.9259 56.078 17.1352C54.106 15.3445 53.12 12.9532 53.12 9.96122C53.12 6.96922 54.106 4.57792 56.078 2.78722C58.072 0.996536 60.588 0.101196 63.6259 0.101196C67.796 0.101196 70.947 1.68782 73.078 4.86122L69.7119 6.76522C68.9409 5.76792 68.091 5.05382 67.162 4.62322C66.255 4.19252 65.0539 3.97722 63.5579 3.97722C61.6539 3.97722 60.1349 4.52122 59.0019 5.60922C57.8909 6.67452 57.3359 8.12522 57.3359 9.96122C57.3359 11.7972 57.8909 13.2592 59.0019 14.3472C60.1349 15.4125 61.6539 15.9452 63.5579 15.9452C65.9599 15.9452 67.887 15.3785 69.338 14.2452V12.1032L64.5439 11.9332V8.43122ZM77.0009 0.543197H81.251V19.3452H77.0009V0.543197ZM84.638 0.543197H88.854V7.47922H94.328L99.054 0.543197H103.95L97.932 9.24722L104.392 19.3452H99.36L94.4299 11.3552H88.854V19.3452H84.638V0.543197ZM106.884 0.543197H117.968C120.212 0.543197 122.059 1.23452 123.51 2.61722C124.983 3.97722 125.72 5.74522 125.72 7.92122C125.72 10.7772 124.507 12.8625 122.082 14.1772L124.972 19.3452H120.348L118.138 15.1632H111.134V19.3452H106.884V0.543197ZM111.134 4.41922V11.2872H117.798C118.908 11.2872 119.792 10.9925 120.45 10.4032C121.13 9.81392 121.47 8.98652 121.47 7.92122C121.47 6.85592 121.13 6.00592 120.45 5.37122C119.792 4.73652 118.908 4.41922 117.798 4.41922H111.134ZM138.665 4.31722L135.163 12.7832H143.527L140.127 4.31722H138.665ZM136.013 0.543197H142.915L150.905 19.3452H146.417L145.193 16.4892H133.599L132.375 19.3452H127.819L136.013 0.543197ZM154.144 14.6872C154.733 14.0979 155.447 13.8032 156.286 13.8032C157.124 13.8032 157.838 14.0979 158.428 14.6872C159.017 15.2539 159.312 15.9565 159.312 16.7952C159.312 17.6112 159.017 18.3025 158.428 18.8692C157.838 19.4132 157.124 19.6852 156.286 19.6852C155.447 19.6852 154.733 19.4132 154.144 18.8692C153.577 18.3025 153.294 17.6112 153.294 16.7952C153.294 15.9565 153.577 15.2539 154.144 14.6872ZM162.333 0.543197H173.417C175.661 0.543197 177.508 1.23452 178.959 2.61722C180.432 3.97722 181.169 5.74522 181.169 7.92122C181.169 10.7772 179.956 12.8625 177.531 14.1772L180.421 19.3452H175.797L173.587 15.1632H166.583V19.3452H162.333V0.543197ZM166.583 4.41922V11.2872H173.247C174.357 11.2872 175.241 10.9925 175.899 10.4032C176.579 9.81392 176.919 8.98652 176.919 7.92122C176.919 6.85592 176.579 6.00592 175.899 5.37122C175.241 4.73652 174.357 4.41922 173.247 4.41922H166.583ZM183.778 0.543197H188.028V10.1652C188.028 14.1092 189.819 16.0812 193.4 16.0812C196.981 16.0812 198.772 14.1092 198.772 10.1652V0.543197H203.022V10.1312C203.022 13.2139 202.161 15.6052 200.438 17.3052C198.715 18.9825 196.369 19.8212 193.4 19.8212C190.431 19.8212 188.085 18.9825 186.362 17.3052C184.639 15.6052 183.778 13.2139 183.778 10.1312V0.543197Z" fill="#001A34"/>
</svg>
