<svg width="36" height="32" viewBox="0 0 36 32" fill="none" xmlns="http://www.w3.org/2000/svg">
<path d="M31.3475 8.55833C31.2061 8.55884 31.0651 8.57229 30.926 8.59866C31.0776 8.21195 31.1362 7.79196 31.0968 7.37578C31.0574 6.95961 30.921 6.56005 30.6998 6.21242C30.4786 5.86479 30.1794 5.57978 29.8285 5.38257C29.4776 5.18537 29.086 5.08204 28.6881 5.08173C28.3895 5.08472 28.0941 5.14682 27.8174 5.2648C27.8325 5.14952 27.8407 5.03333 27.8417 4.91695C27.8394 4.25956 27.5951 3.62865 27.1601 3.15636C26.7251 2.68409 26.1332 2.4071 25.5082 2.38343C24.8833 2.35977 24.2739 2.59126 23.8077 3.02941C23.3415 3.46756 23.0546 4.07837 23.0073 4.73388C22.6215 4.40019 22.147 4.20005 21.6489 4.16085C21.9136 3.82246 22.0906 3.41799 22.163 2.9866C22.2353 2.55519 22.2005 2.11146 22.0619 1.69834C21.9233 1.28523 21.6856 0.91673 21.3718 0.62849C21.058 0.34025 20.6787 0.14205 20.2708 0.0530604C19.8627 -0.0359266 19.4398 -0.0126856 19.0428 0.12053C18.6458 0.25375 18.2883 0.49244 18.0048 0.8135C17.7214 1.13455 17.5215 1.5271 17.4246 1.95316C17.3277 2.37921 17.3371 2.82433 17.4518 3.24546H17.3578C16.8975 3.2454 16.4467 3.38311 16.0581 3.64247C15.6696 3.90184 15.3593 4.27214 15.1635 4.71008C15.0712 4.07662 14.7552 3.50306 14.2781 3.10397C13.8012 2.70487 13.1986 2.50964 12.5907 2.55726C11.9828 2.60489 11.4144 2.89188 10.999 3.36089C10.5836 3.82989 10.3517 4.44639 10.35 5.08722C10.3492 5.41159 10.4083 5.73304 10.5241 6.03373C10.1221 6.07739 9.7371 6.22659 9.4043 6.46762C9.1357 5.98612 8.72385 5.61083 8.23237 5.39956C7.74088 5.18829 7.19695 5.15276 6.68436 5.29845C6.17177 5.44414 5.71898 5.76297 5.39573 6.20582C5.07247 6.64866 4.89669 7.19096 4.89547 7.74916C4.89574 7.95477 4.92031 8.15956 4.96861 8.35881C4.80086 8.32135 4.62984 8.30233 4.45835 8.30205C4.07046 8.30101 3.68801 8.39783 3.3431 8.58436C2.9982 8.7709 2.7009 9.0417 2.47619 9.3741C2.25148 9.7065 2.10592 10.0907 2.05173 10.4944C1.99754 10.8982 2.0363 11.3097 2.16475 11.6945C2.776 11.9227 3.40154 12.1063 4.0369 12.2437C6.3775 12.7417 10.2002 13.2305 15.2906 13.355C15.135 13.2214 15.0229 13.0402 14.9699 12.8365C14.9168 12.6328 14.9254 12.4168 14.9945 12.2186C15.0637 12.0202 15.1898 11.8495 15.3554 11.7301C15.5212 11.6106 15.7182 11.5485 15.919 11.5522C16.1198 11.5558 16.3146 11.6252 16.4762 11.7507C16.6378 11.8761 16.7582 12.0514 16.8207 12.252C16.8832 12.4527 16.8846 12.669 16.8248 12.8706C16.765 13.0721 16.647 13.2491 16.4871 13.3769C16.9515 13.3843 17.4223 13.388 17.8994 13.388C24.3047 13.388 29.0365 12.8222 31.7619 12.2437C32.4247 12.1003 33.0765 11.9063 33.7124 11.6633C33.7517 11.4788 33.7716 11.2903 33.7717 11.1013C33.7714 10.767 33.7085 10.4359 33.5865 10.1272C33.4646 9.8184 33.286 9.5379 33.0608 9.3017C32.8356 9.0656 32.5685 8.87838 32.2745 8.75086C31.9806 8.62325 31.6655 8.5579 31.3475 8.55833ZM3.92544 11.3155C3.73462 11.3155 3.54808 11.256 3.38942 11.1446C3.23076 11.0331 3.1071 10.8747 3.03407 10.6894C2.96105 10.504 2.94194 10.3001 2.97917 10.1034C3.0164 9.9066 3.10829 9.7259 3.24322 9.5841C3.37815 9.4422 3.55006 9.3457 3.73721 9.3065C3.92437 9.2674 4.11835 9.2874 4.29465 9.3643C4.47095 9.441 4.62163 9.571 4.72764 9.7378C4.83366 9.9046 4.89024 10.1006 4.89024 10.3013C4.89024 10.5702 4.7886 10.8282 4.60766 11.0184C4.42672 11.2086 4.18132 11.3155 3.92544 11.3155ZM5.82021 7.20359C5.81987 7.00323 5.876 6.80724 5.98149 6.64037C6.087 6.47351 6.23715 6.34322 6.413 6.26596C6.58886 6.18871 6.78255 6.16794 6.96963 6.20628C7.1567 6.24461 7.32878 6.34035 7.46416 6.48138C7.59953 6.62242 7.69214 6.80246 7.7303 6.99876C7.76844 7.19507 7.75043 7.39887 7.67853 7.58443C7.60662 7.76999 7.48404 7.92899 7.32627 8.0414C7.16849 8.15381 6.98258 8.21456 6.79199 8.21601C6.66485 8.21697 6.53878 8.19152 6.42103 8.14109C6.30329 8.09067 6.19618 8.01627 6.10587 7.92219C6.01557 7.8281 5.94384 7.71618 5.89482 7.59286C5.84579 7.46954 5.82044 7.33724 5.82021 7.20359ZM8.08419 12.6959C7.8933 12.6959 7.7067 12.6363 7.54799 12.5248C7.3893 12.4133 7.26564 12.2548 7.19267 12.0694C7.1197 11.8839 7.10069 11.6799 7.13806 11.4831C7.17543 11.2863 7.26749 11.1056 7.40259 10.9639C7.5377 10.822 7.70977 10.7256 7.89704 10.6867C8.08431 10.6477 8.27835 10.6681 8.45462 10.7451C8.63085 10.8222 8.78147 10.9525 8.88726 11.1195C8.99305 11.2866 9.0493 11.4828 9.049 11.6835C9.0492 11.8171 9.0243 11.9495 8.97574 12.073C8.92716 12.1965 8.85581 12.3087 8.76579 12.4031C8.67586 12.4976 8.56896 12.5724 8.4514 12.6232C8.33383 12.6741 8.20786 12.7001 8.08071 12.6995L8.08419 12.6959ZM9.2928 8.00181C9.2925 7.80105 9.3488 7.60471 9.4546 7.43763C9.5606 7.27056 9.7112 7.14028 9.8876 7.06328C10.064 6.98629 10.2581 6.96606 10.4454 7.00513C10.6327 7.04421 10.8048 7.14084 10.9398 7.2828C11.0749 7.42475 11.1668 7.60564 11.2039 7.80256C11.2412 7.99947 11.2219 8.20356 11.1487 8.38896C11.0754 8.57434 10.9514 8.73279 10.7925 8.84404C10.6336 8.95538 10.4469 9.0146 10.2558 9.0142C10.1294 9.0147 10.0041 8.98904 9.8871 8.93859C9.77 8.88815 9.6637 8.81398 9.5739 8.72028C9.4841 8.62659 9.4128 8.51527 9.3639 8.39263C9.3152 8.26997 9.2898 8.13842 9.2894 8.00547L9.2928 8.00181ZM11.8075 12.6995C11.6167 12.6995 11.4301 12.64 11.2713 12.5285C11.1127 12.417 10.989 12.2585 10.9161 12.073C10.8431 11.8876 10.8241 11.6835 10.8614 11.4868C10.8988 11.29 10.9909 11.1093 11.126 10.9674C11.261 10.8257 11.4331 10.7293 11.6204 10.6903C11.8077 10.6514 12.0017 10.6718 12.178 10.7488C12.3543 10.8259 12.5048 10.9561 12.6106 11.1232C12.7164 11.2902 12.7727 11.4865 12.7724 11.6871C12.7719 11.9558 12.67 12.2133 12.4891 12.4031C12.3083 12.593 12.0632 12.6995 11.8075 12.6995ZM12.2447 5.54125C12.0543 5.54089 11.8682 5.4812 11.7101 5.36974C11.552 5.25827 11.4288 5.10003 11.3562 4.915C11.2835 4.72997 11.2647 4.52647 11.3021 4.3302C11.3395 4.13393 11.4313 3.95371 11.566 3.8123C11.7008 3.6709 11.8724 3.57465 12.0592 3.53574C12.2459 3.49682 12.4395 3.51697 12.6154 3.59365C12.7912 3.67034 12.9416 3.8001 13.0473 3.96655C13.1531 4.13301 13.2095 4.32867 13.2095 4.52883C13.2095 4.66194 13.1846 4.79373 13.136 4.91669C13.0875 5.03964 13.0165 5.15133 12.9268 5.24537C12.8372 5.3394 12.7308 5.41394 12.6138 5.46471C12.4967 5.51548 12.3713 5.54149 12.2447 5.54125ZM14.4076 9.4793C14.2168 9.4793 14.0303 9.4197 13.8716 9.3083C13.713 9.1969 13.5893 9.0385 13.5163 8.85312C13.4433 8.66778 13.4242 8.46387 13.4614 8.26712C13.4986 8.07038 13.5905 7.88966 13.7254 7.74781C13.8604 7.60597 14.0323 7.50937 14.2194 7.47023C14.4066 7.43109 14.6006 7.45119 14.7769 7.52795C14.9532 7.60472 15.1039 7.73472 15.2099 7.9015C15.3159 8.0683 15.3725 8.26439 15.3725 8.46499C15.3725 8.59815 15.3475 8.73005 15.299 8.85312C15.2505 8.97619 15.1795 9.088 15.0899 9.1822C15.0003 9.2764 14.8939 9.3511 14.7769 9.402C14.6599 9.453 14.5344 9.4793 14.4076 9.4793ZM16.8302 6.23877C16.6397 6.23841 16.4537 6.17873 16.2955 6.06726C16.1374 5.95579 16.0142 5.79755 15.9416 5.61252C15.869 5.42749 15.8502 5.22399 15.8875 5.02773C15.9249 4.83145 16.0168 4.65123 16.1515 4.50982C16.2862 4.36842 16.4578 4.27218 16.6446 4.23326C16.8314 4.19434 17.0249 4.2145 17.2008 4.29118C17.3767 4.36786 17.527 4.49762 17.6327 4.66408C17.7385 4.83053 17.7949 5.02619 17.7949 5.22636C17.7949 5.35947 17.77 5.49127 17.7215 5.61421C17.673 5.73716 17.6019 5.84885 17.5123 5.94289C17.4226 6.03692 17.3162 6.11146 17.1992 6.16223C17.0821 6.213 16.9567 6.23901 16.8302 6.23877ZM18.5229 10.5009C18.3321 10.5009 18.1455 10.4413 17.9868 10.3299C17.8282 10.2184 17.7046 10.06 17.6315 9.8747C17.5585 9.6894 17.5394 9.4854 17.5766 9.2887C17.6139 9.092 17.7057 8.91119 17.8406 8.76936C17.9756 8.62753 18.1475 8.53094 18.3346 8.4918C18.5218 8.45266 18.7158 8.47276 18.8921 8.54952C19.0684 8.62633 19.2191 8.75625 19.3251 8.92309C19.4311 9.0898 19.4877 9.286 19.4877 9.4866C19.4877 9.7556 19.386 10.0135 19.2051 10.2037C19.0242 10.394 18.7787 10.5009 18.5229 10.5009ZM19.2508 2.99464C19.0606 2.99392 18.8746 2.93393 18.7168 2.82224C18.5588 2.71056 18.436 2.55219 18.3636 2.36713C18.2912 2.18208 18.2726 1.97863 18.3102 1.78248C18.3477 1.58633 18.4397 1.40627 18.5746 1.26505C18.7093 1.12383 18.881 1.02777 19.0677 0.989C19.2544 0.95024 19.4479 0.97049 19.6237 1.04723C19.7994 1.12396 19.9496 1.25373 20.0553 1.42014C20.161 1.58655 20.2174 1.78215 20.2174 1.98222C20.2176 2.11564 20.1928 2.24779 20.1443 2.37107C20.0957 2.49436 20.0245 2.60634 19.9347 2.70059C19.8449 2.79485 19.7382 2.86951 19.6209 2.92029C19.5035 2.97107 19.3777 2.99696 19.2508 2.99647V2.99464ZM19.9823 6.13625C19.9819 5.93549 20.0383 5.73915 20.1442 5.57207C20.25 5.405 20.4007 5.27472 20.577 5.19772C20.7534 5.12074 20.9476 5.10049 21.1349 5.13957C21.3222 5.17865 21.4943 5.27529 21.6293 5.41724C21.7643 5.55919 21.8563 5.74008 21.8934 5.937C21.9306 6.13392 21.9113 6.338 21.8381 6.5234C21.7649 6.7088 21.641 6.86719 21.482 6.9785C21.3231 7.08981 21.1363 7.14903 20.9454 7.14867C20.6902 7.14867 20.4455 7.04226 20.265 6.85278C20.0844 6.66332 19.9827 6.40627 19.9823 6.13808V6.13625ZM22.2915 13.0365C22.1008 13.0365 21.9142 12.977 21.7555 12.8655C21.5969 12.754 21.4732 12.5957 21.4001 12.4103C21.3272 12.225 21.3081 12.0211 21.3452 11.8243C21.3825 11.6276 21.4744 11.4468 21.6093 11.305C21.7443 11.1631 21.9161 11.0665 22.1033 11.0274C22.2905 10.9883 22.4844 11.0084 22.6607 11.0851C22.8371 11.1619 22.9877 11.2919 23.0938 11.4587C23.1998 11.6255 23.2563 11.8216 23.2563 12.0222C23.2563 12.1554 23.2314 12.2872 23.1829 12.4103C23.1344 12.5334 23.0633 12.6452 22.9737 12.7394C22.8841 12.8336 22.7778 12.9083 22.6607 12.9592C22.5437 13.0102 22.4182 13.0365 22.2915 13.0365ZM24.2299 9.8308C24.0394 9.8304 23.8534 9.7707 23.6953 9.6592C23.5371 9.5478 23.4139 9.3895 23.3413 9.2045C23.2687 9.0194 23.2499 8.81595 23.2873 8.61973C23.3246 8.42343 23.4165 8.2432 23.5513 8.1018C23.6859 7.96039 23.8576 7.86415 24.0444 7.82523C24.2312 7.78632 24.4247 7.80647 24.6005 7.88316C24.7765 7.95984 24.9267 8.08961 25.0324 8.25605C25.1382 8.4225 25.1947 8.61819 25.1947 8.81835C25.1947 8.95161 25.1696 9.0835 25.121 9.2066C25.0724 9.3296 25.0012 9.4414 24.9113 9.5355C24.8216 9.6296 24.715 9.7041 24.5977 9.7547C24.4805 9.8054 24.3548 9.8312 24.2281 9.8308H24.2299ZM24.8934 5.36733C24.703 5.36696 24.517 5.30728 24.3588 5.19582C24.2006 5.08435 24.0775 4.9261 24.0048 4.74108C23.9322 4.55605 23.9135 4.35254 23.9508 4.15628C23.9881 3.96001 24.08 3.77979 24.2147 3.63838C24.3495 3.49697 24.5211 3.40073 24.7078 3.36181C24.8946 3.32289 25.0882 3.34305 25.2641 3.41973C25.4399 3.49641 25.5903 3.62618 25.696 3.79263C25.8018 3.95908 25.8582 4.15475 25.8582 4.3549C25.8582 4.48817 25.8331 4.62012 25.7846 4.74319C25.736 4.86626 25.6647 4.97804 25.5749 5.07209C25.4851 5.16616 25.3785 5.24065 25.2612 5.29131C25.144 5.34198 25.0184 5.36781 24.8916 5.36733H24.8934ZM26.8787 12.3389C26.6878 12.3389 26.5012 12.2794 26.3426 12.1679C26.1838 12.0563 26.0601 11.8978 25.9872 11.7124C25.9142 11.527 25.8952 11.3229 25.9325 11.1262C25.97 10.9293 26.062 10.7486 26.1971 10.6068C26.3322 10.4651 26.5043 10.3686 26.6915 10.3296C26.8788 10.2908 27.0728 10.3111 27.2491 10.3881C27.4254 10.4652 27.5759 10.5955 27.6817 10.7625C27.7876 10.9295 27.8439 11.1258 27.8435 11.3265C27.8433 11.4597 27.8181 11.5915 27.7694 11.7144C27.7207 11.8374 27.6494 11.9491 27.5597 12.0432C27.47 12.1371 27.3634 12.2116 27.2463 12.2624C27.1292 12.3131 27.0037 12.3391 26.8769 12.3389H26.8787ZM28.1639 8.08785C27.9735 8.08749 27.7875 8.0278 27.6294 7.91635C27.4713 7.80488 27.3481 7.64663 27.2755 7.4616C27.2028 7.27658 27.184 7.07307 27.2213 6.87681C27.2587 6.68053 27.3506 6.50031 27.4853 6.35891C27.6201 6.2175 27.7917 6.12126 27.9785 6.08234C28.1652 6.04342 28.3587 6.06358 28.5347 6.14026C28.7105 6.21694 28.8608 6.3467 28.9666 6.51315C29.0723 6.67961 29.1287 6.87528 29.1287 7.07543C29.1287 7.2087 29.1038 7.34064 29.0551 7.46372C29.0065 7.58679 28.9352 7.69856 28.8455 7.79262C28.7556 7.88668 28.6491 7.96118 28.5319 8.01184C28.4146 8.06251 28.289 8.08834 28.1622 8.08785H28.1639ZM30.825 11.5663C30.6341 11.5663 30.4475 11.5068 30.2888 11.3952C30.1301 11.2837 30.0065 11.1252 29.9334 10.9398C29.8605 10.7544 29.8415 10.5504 29.8789 10.3535C29.9162 10.1567 30.0083 9.976 30.1434 9.8343C30.2785 9.6924 30.4506 9.596 30.6379 9.5571C30.8251 9.5182 31.0192 9.5385 31.1955 9.6155C31.3717 9.6926 31.5223 9.8229 31.6281 9.9899C31.7339 10.157 31.7901 10.3532 31.7898 10.5539C31.7896 10.6869 31.7645 10.8184 31.7159 10.9412C31.6672 11.064 31.5961 11.1754 31.5065 11.2693C31.4169 11.3631 31.3106 11.4375 31.1937 11.4881C31.0767 11.5388 30.9515 11.5647 30.825 11.5645V11.5663Z" fill="#F15E22"/>
<path d="M17.9011 30.1853C15.2051 30.2104 12.5308 29.6767 10.0312 28.6144V28.7042C10.0312 29.4017 10.4648 30.3793 11.0952 30.5935C13.296 31.327 15.5925 31.6933 17.9011 31.6792C20.2099 31.6933 22.5063 31.327 24.7071 30.5935C25.3375 30.3793 25.7711 29.4017 25.7711 28.7042V28.6144C23.2715 29.6767 20.5971 30.2104 17.9011 30.1853Z" fill="#F15E22"/>
<path d="M17.9011 30.1853C15.2051 30.2104 12.5308 29.6767 10.0312 28.6144V28.7042C10.0312 29.4017 10.4648 30.3793 11.0952 30.5935C13.296 31.327 15.5925 31.6933 17.9011 31.6792C20.2099 31.6933 22.5063 31.327 24.7071 30.5935C25.3375 30.3793 25.7711 29.4017 25.7711 28.7042V28.6144C23.2715 29.6767 20.5971 30.2104 17.9011 30.1853Z" fill="#F15E22"/>
<path d="M34.8131 11.2606C34.8049 11.4776 34.7774 11.6934 34.7312 11.905L34.6075 12.4945L34.0659 12.6996C33.3817 12.9605 32.6803 13.1691 31.9674 13.3239C30.3409 13.668 25.7797 14.4644 18.2459 14.4864L18.2947 14.5303L15.6041 14.4644L13.4202 14.4297L13.4637 14.3949C8.5056 14.1788 5.34821 13.6442 3.83135 13.3239C3.14808 13.1751 2.47541 12.977 1.81815 12.7307L1.34446 12.5476L1.17031 12.0478C1.08354 11.7871 1.02511 11.5169 0.99615 11.2423C0.3483 11.5627 0 11.8904 0 12.2437C0 18.9846 6.09533 28.6932 17.8994 28.6932C29.6999 28.6932 35.7987 18.9901 35.7987 12.2437C35.8022 11.9013 35.4539 11.57 34.8131 11.2606Z" fill="#F15E22"/>
<path d="M34.8131 11.2606C34.8049 11.4776 34.7774 11.6934 34.7312 11.905L34.6075 12.4945L34.0659 12.6996C33.3817 12.9605 32.6803 13.1691 31.9674 13.3239C30.3409 13.668 25.7797 14.4644 18.2459 14.4864L18.2947 14.5303L15.6041 14.4644L13.4202 14.4297L13.4637 14.3949C8.5056 14.1788 5.34821 13.6442 3.83135 13.3239C3.14808 13.1751 2.47541 12.977 1.81815 12.7307L1.34446 12.5476L1.17031 12.0478C1.08354 11.7871 1.02511 11.5169 0.99615 11.2423C0.3483 11.5627 0 11.8904 0 12.2437C0 18.9846 6.09533 28.6932 17.8994 28.6932C29.6999 28.6932 35.7987 18.9901 35.7987 12.2437C35.8022 11.9013 35.4539 11.57 34.8131 11.2606Z" fill="#F15E22"/>
</svg>
